# xmcd CD database file
#
# Track frame offsets:
#	150
#	15844
#	30784
#	41074
#	62717
#	76096
#	90099
#	110546
#	126377
#	147560
#	160584
#	176332
#	194000
#	212954
#	232112
#
# Disc length: 3272 seconds
#
# Revision: 0
# Processed by: cddbd v1.5.1PL0 Copyright (c) Steve Scherf et al.
# Submitted via: CDex 1.51
#
DISCID=be0cc60f
DTITLE=Echoes Of Swing Orchestra - fusion
DYEAR=2003
DGENRE=Jazz
TTITLE0=Everybody Shuffle
TTITLE1=They Say
TTITLE2=I Hear Music
TTITLE3=Dickie's Dream
TTITLE4=The Moon Looks Down And Laughs
TTITLE5=I Cried For You
TTITLE6=Lady Of Mystery
TTITLE7=Etude in Gb, Op. 25, No. 9
TTITLE8=This Heart Of Mine
TTITLE9=It's Too Hot For Words
TTITLE10=It's Like Reaching For The Moon
TTITLE11=Trumpet Interlude
TTITLE12=My Fate Is In Your Hands
TTITLE13=Dry County Jump
TTITLE14=Dreamy Mood
EXTD=YEAR: 2003
EXTT0=
EXTT1=
EXTT2=
EXTT3=
EXTT4=
EXTT5=
EXTT6=
EXTT7=
EXTT8=
EXTT9=
EXTT10=
EXTT11=
EXTT12=
EXTT13=
EXTT14=
PLAYORDER=
